#!OML:ASF F:\VICON\USERDATA\INSTALL\rory3\rory3.ASF
:FULLY-SPECIFIED
:DEGREES
16
root -5.18644 16.6142 17.6104 186.5 -44.9126 -176.091
lowerback -6.73737 5.12847 1.81116
upperback -5.72509 6.45682 -1.19939
thorax -1.81798 3.03868 -1.89691
lowerneck -8.52885 -9.08162 -17.6566
upperneck 31.906 -16.8889 13.989
head 15.421 -8.71848 5.81189
rclavicle -9.10434e-014 -3.26007e-014
rhumerus 6.26535 2.37687 -28.8713
rradius 55.3065
rwrist 16.8938
rhand -32.1674 -52.1978
rfingers 7.12502
rthumb -5.41035 -82.1087
lclavicle -9.10434e-014 -3.26007e-014
lhumerus -54.1795 21.3868 2.30815
lradius 35.4938
lwrist 31.53
lhand -44.72 -32.9201
lfingers 7.12502
lthumb -17.5142 -3.68905
rfemur -29.3683 12.4075 6.19786
rtibia 38.119
rfoot -20.5741 -19.271
rtoes -26.0652
lfemur -28.977 -8.22036 -10.0985
ltibia 44.154
lfoot -29.9277 11.6246
ltoes -24.9111
17
root -5.2128 16.6143 17.6079 186.877 -44.0614 -176.364
lowerback -6.76152 5.45538 2.04022
upperback -5.82006 6.87162 -1.39873
thorax -1.83496 3.23156 -2.20207
lowerneck -7.78826 -9.34747 -16.9634
upperneck 31.4979 -17.5493 13.9511
head 15.1148 -8.9711 5.5547
rclavicle -6.83819e-014 -9.54166e-015
rhumerus 5.5539 2.13638 -29.1353
rradius 54.3276
rwrist 18.2025
rhand -33.8189 -54.2861
rfingers 7.12502
rthumb -7.00477 -84.1502
lclavicle -6.83819e-014 -9.54166e-015
lhumerus -52.8033 21.4139 1.83824
lradius 35.6306
lwrist 31.7677
lhand -45.7856 -32.9744
lfingers 7.12502
lthumb -18.5395 -3.83789
rfemur -29.704 11.9563 5.93202
rtibia 38.0156
rfoot -19.9695 -20.2101
rtoes -26.5108
lfemur -28.7546 -8.05295 -10.4249
ltibia 44.0039
lfoot -30.4782 11.7716
ltoes -25.4425
18
root -5.24756 16.6208 17.5967 187.527 -43.2873 -176.95
lowerback -7.08138 5.76484 1.97053
upperback -5.85933 7.26824 -1.62751
thorax -1.65904 3.4262 -2.34121
lowerneck -7.04969 -9.71349 -16.2455
upperneck 31.1846 -18.3192 13.7496
head 14.8515 -9.29013 5.21173
rclavicle 6.26172e-015 1.78906e-014
rhumerus 4.17891 1.00982 -29.7629
rradius 53.9554
rwrist 18.7602
rhand -32.2013 -52.5765
rfingers 7.12502
rthumb -5.44313 -82.4866
lclavicle 6.26172e-015 1.78906e-014
lhumerus -51.2667 21.3149 1.64264
lradius 35.7587
lwrist 31.9888
lhand -44.7038 -33.1985
lfingers 7.12502
lthumb -17.4986 -3.9661
rfemur -29.9721 11.6583 5.39146
rtibia 37.9298
rfoot -19.6798 -21.3671
rtoes -26.6431
lfemur -28.5296 -8.12982 -11.0059
ltibia 43.81
lfoot -30.8435 11.264
ltoes -24.4106
19
root -5.28078 16.6254 17.583 187.993 -42.5272 -177.368
lowerback -7.35272 5.81772 1.94649
upperback -5.79984 7.33107 -1.5208
thorax -1.46168 3.46147 -2.1833
lowerneck -6.72463 -9.91855 -16.088
upperneck 31.0727 -18.6459 13.484
head 14.7381 -9.46076 5.01777
rclavicle -7.75509e-014 -2.14687e-014
rhumerus 3.84027 0.479234 -30.1639
rradius 53.469
rwrist 19.6345
rhand -31.1162 -52.0865
rfingers 7.12502
rthumb -4.39537 -82.0209
lclavicle -7.75509e-014 -2.14687e-014
lhumerus -50.7146 21.2243 1.17476
lradius 35.9829
lwrist 32.2489
lhand -43.5518 -33.4737
lfingers 7.12502
lthumb -16.3897 -4.1462
rfemur -30.1417 11.5417 4.97848
rtibia 37.8612
rfoot -19.9006 -22.493
rtoes -25.619
lfemur -28.2571 -8.20978 -11.473
ltibia 43.6048
lfoot -31.0541 11.3331
ltoes -24.2653
20
root -5.30806 16.631 17.5704 188.198 -41.751 -177.477
lowerback -7.45055 5.79783 2.19787
upperback -5.7485 7.28818 -1.3192
thorax -1.35234 3.43706 -2.10401
lowerneck -6.57262 -9.96837 -16.0105
upperneck 30.9485 -18.6933 13.2967
head 14.6192 -9.50076 4.92149
rclavicle 9.04967e-014 1.74931e-014
rhumerus 3.88898 0.564135 -30.4811
rradius 52.8761
rwrist 19.3334
rhand -31.5333 -52.2806
rfingers 7.12502
rthumb -4.79809 -82.2062
lclavicle 9.04967e-014 1.74931e-014
lhumerus -50.4864 21.1618 0.483496
lradius 36.2231
lwrist 32.4522
lhand -43.6756 -33.9161
lfingers 7.12502
lthumb -16.5089 -4.59846
rfemur -30.3257 11.3132 4.84253
rtibia 37.8438
rfoot -20.49 -23.0844
rtoes -23.2457
lfemur -27.9535 -8.2974 -11.6719
ltibia 43.3972
lfoot -31.2828 11.5311
ltoes -24.2295
21
root -5.33055 16.6348 17.5586 188.614 -40.9997 -177.831
lowerback -7.50245 5.78622 2.30851
upperback -5.71958 7.26312 -1.24066
thorax -1.29182 3.42248 -2.0787
lowerneck -6.42661 -10.0416 -16.0197
upperneck 30.8192 -18.8236 13.2624
head 14.5495 -9.57322 4.88567
rclavicle 4.47266e-014 2.5842e-015
rhumerus 3.85268 0.669391 -30.8344
rradius 52.1319
rwrist 18.485
rhand -32.8362 -52.2921
rfingers 7.12502
rthumb -6.0561 -82.1856
lclavicle 4.47266e-014 2.5842e-015
lhumerus -50.1004 21.1633 -0.156618
lradius 36.4686
lwrist 32.6398
lhand -43.7725 -33.9171
lfingers 7.12502
lthumb -16.6022 -4.6072
rfemur -30.5995 10.8344 4.54755
rtibia 37.892
rfoot -20.9358 -23.5173
rtoes -20.8804
lfemur -27.7283 -8.52651 -12.0387
ltibia 43.2142
lfoot -31.5858 11.5333
ltoes -23.5781
22
root -5.34616 16.6337 17.5402 189.159 -40.1866 -178.347
lowerback -7.48356 5.81887 2.10729
upperback -5.69521 7.31663 -1.10905
thorax -1.31558 3.45579 -1.8325
lowerneck -6.35295 -10.2303 -16.3771
upperneck 30.7905 -19.1073 13.281
head 14.6266 -9.73852 4.89178
rclavicle 1.90088e-014 9.93923e-015
rhumerus 3.74367 0.689126 -30.9399
rradius 51.5104
rwrist 18.1306
rhand -33.3693 -52.701
rfingers 7.12502
rthumb -6.57071 -82.5791
lclavicle 1.90088e-014 9.93923e-015
lhumerus -49.6697 21.3515 -0.668928
lradius 36.7437
lwrist 32.5844
lhand -43.6655 -33.732
lfingers 7.12502
lthumb -16.4992 -4.41355
rfemur -30.9686 10.4387 4.12673
rtibia 37.9948
rfoot -21.2553 -24.0681
rtoes -19.517
lfemur -27.5605 -8.6766 -12.5251
ltibia 43.0689
lfoot -31.9805 11.3805
ltoes -23.0079
23
root -5.3609 16.6313 17.5215 189.488 -39.3048 -178.576
lowerback -7.35591 5.92489 2.0816
upperback -5.69522 7.46127 -0.925254
thorax -1.40655 3.52971 -1.63478
lowerneck -6.27666 -10.4124 -16.7061
upperneck 30.7511 -19.3848 13.3064
head 14.6957 -9.89648 4.89663
rclavicle 5.96634e-014 3.08116e-015
rhumerus 3.5758 0.619101 -30.9955
rradius 50.9695
rwrist 18.1897
rhand -33.0451 -53.1908
rfingers 7.12502
rthumb -6.25777 -83.0783
lclavicle 5.96634e-014 3.08116e-015
lhumerus -49.077 21.4651 -1.07847
lradius 37.013
lwrist 32.4387
lhand -43.5584 -33.9894
lfingers 7.12502
lthumb -16.3961 -4.66243
rfemur -31.4223 10.3006 3.89468
rtibia 38.1432
rfoot -21.3613 -24.6233
rtoes -19.4023
lfemur -27.3906 -8.67874 -12.8032
ltibia 42.9589
lfoot -32.4573 11.007
ltoes -22.5523
24
root -5.38067 16.6254 17.5114 189.795 -38.4718 -178.715
lowerback -7.31002 6.00219 2.358
upperback -5.68402 7.54887 -0.862258
thorax -1.39014 3.566 -1.71752
lowerneck -6.06023 -10.5194 -16.8293
upperneck 30.5111 -19.5891 13.4281
head 14.613 -9.99978 4.93006
rclavicle -3.72966e-014 -2.17421e-015
rhumerus 3.47655 0.410912 -31.3955
rradius 50.2604
rwrist 18.4666
rhand -32.3693 -52.8145
rfingers 7.12502
rthumb -5.60526 -82.7204
lclavicle -3.72966e-014 -2.17421e-015
lhumerus -48.4102 21.3733 -1.52157
lradius 37.3021
lwrist 32.374
lhand -43.483 -34.1469
lfingers 7.12502
lthumb -16.3234 -4.81392
rfemur -31.9961 10.0811 3.69126
rtibia 38.3405
rfoot -21.0467 -24.8951
rtoes -19.6384
lfemur -27.3131 -8.66289 -13.0477
ltibia 42.8648
lfoot -32.8838 10.6576
ltoes -22.0852
25
root -5.39847 16.6169 17.5007 190.257 -37.6389 -179.113
lowerback -7.31321 5.9594 2.38281
upperback -5.60832 7.49166 -0.779955
thorax -1.32007 3.53996 -1.64631
lowerneck -5.88424 -10.6232 -16.9819
upperneck 30.2289 -19.7179 13.4565
head 14.495 -10.0752 4.94242
rclavicle -4.29251e-014 -1.81888e-014
rhumerus 3.58671 0.427342 -31.798
rradius 49.6129
rwrist 18.6242
rhand -32.1874 -52.5023
rfingers 7.12502
rthumb -5.42965 -82.4127
lclavicle -4.29251e-014 -1.81888e-014
lhumerus -48.1556 21.3576 -2.15019
lradius 37.7166
lwrist 32.2263
lhand -43.4658 -34.4132
lfingers 7.12502
lthumb -16.3069 -5.07887
rfemur -32.6232 9.47254 3.32976
rtibia 38.568
rfoot -20.5697 -24.4569
rtoes -20.103
lfemur -27.2326 -8.81204 -13.4972
ltibia 42.7513
lfoot -33.184 10.4802
ltoes -21.4693
26
root -5.41556 16.6084 17.4871 190.808 -36.8605 -179.75
lowerback -7.32377 5.81078 2.04679
upperback -5.47561 7.31622 -0.609437
thorax -1.24718 3.46782 -1.29536
lowerneck -5.73401 -10.724 -17.1275
upperneck 30.0097 -19.7957 13.3257
head 14.3775 -10.1396 4.89882
rclavicle 8.83722e-014 1.23246e-014
rhumerus 3.99822 0.703425 -31.9738
rradius 48.9233
rwrist 18.6844
rhand -32.4257 -52.723
rfingers 7.12502
rthumb -5.65977 -82.6274
lclavicle 8.83722e-014 1.23246e-014
lhumerus -48.2024 21.3913 -2.84975
lradius 38.1504
lwrist 31.9765
lhand -43.5698 -34.5815
lfingers 7.12502
lthumb -16.407 -5.25542
rfemur -33.1807 8.41578 2.87488
rtibia 38.8197
rfoot -20.1248 -23.4624
rtoes -20.6595
lfemur -27.0643 -9.10896 -14.1479
ltibia 42.5888
lfoot -33.2557 10.4965
ltoes -21.0381
27
root -5.43465 16.6032 17.4703 191.231 -36.164 -180.216
lowerback -7.32345 5.69858 1.95201
upperback -5.40101 7.17357 -0.532873
thorax -1.19607 3.40181 -1.17209
lowerneck -5.45128 -10.7584 -17.1758
upperneck 29.8233 -19.8973 13.3313
head 14.2585 -10.21 4.90112
rclavicle -7.80106e-014 -7.35503e-015
rhumerus 4.36844 0.893776 -32.326
rradius 48.1196
rwrist 18.9376
rhand -32.4767 -53.0656
rfingers 7.12502
rthumb -5.70901 -82.9687
lclavicle -7.80106e-014 -7.35503e-015
lhumerus -47.9294 21.3034 -3.58731
lradius 38.4547
lwrist 31.7361
lhand -43.6599 -34.3813
lfingers 7.12502
lthumb -16.4938 -5.06242
rfemur -33.6711 7.7459 2.51965
rtibia 39.0601
rfoot -19.6069 -22.7146
rtoes -20.4355
lfemur -26.8751 -9.1119 -14.6791
ltibia 42.3723
lfoot -32.9916 10.8546
ltoes -21.3773
28
root -5.45003 16.5999 17.45 191.462 -35.3886 -180.481
lowerback -7.14926 5.72 2.03264
upperback -5.39336 7.203 -0.505181
thorax -1.2765 3.41415 -1.20275
lowerneck -5.06439 -10.7689 -17.2207
upperneck 29.6439 -20.028 13.4332
head 14.1404 -10.2948 4.94361
rclavicle -1.64494e-014 -1.66979e-014
rhumerus 4.22324 0.842858 -32.8185
rradius 47.5857
rwrist 19.5884
rhand -32.3892 -53.5705
rfingers 7.12502
rthumb -5.62449 -83.4759
lclavicle -1.64494e-014 -1.66979e-014
lhumerus -47.2555 21.1657 -4.21451
lradius 38.6767
lwrist 31.4288
lhand -43.6724 -34.8735
lfingers 7.12502
lthumb -16.5059 -5.55557
rfemur -34.0985 7.53289 2.29407
rtibia 39.2015
rfoot -18.6958 -22.0869
rtoes -20.2304
lfemur -26.5885 -8.74811 -15.0521
ltibia 42.1092
lfoot -32.6411 11.2135
ltoes -21.4817
